<svg
  width="72"
  height="72"
  viewBox="0 0 72 72"
  fill="none"
  xmlns="http://www.w3.org/2000/svg"
>
  <rect width="72" height="72" fill="none" />
  <g transform="translate(6, 6) scale(2.5)">
    <g
      stroke="#e7c000"
      stroke-width="2"
      stroke-linecap="round"
      stroke-linejoin="round"
      fill="none"
    >
      <path d="M10 3H8"/>
      <path d="m15.007 5.008 3.987 3.986"/>
      <path d="M20 15v4"/>
      <path d="M21.174 6.813a2.82 2.82 0 0 0-3.986-3.987L3.842 16.175a2 2 0 0 0-.5.83l-1.321 4.352a.5.5 0 0 0 .623.622l4.353-1.32a2 2 0 0 0 .83-.497z"/>
      <path d="M22 17h-4"/>
      <path d="M4 5v4"/>
      <path d="M6 7H2"/>
      <path d="M9 2v2"/>
    </g>
  </g>
</svg>
